<svg xmlns="http://www.w3.org/2000/svg" width="20.068" height="23.998" viewBox="0 0 20.068 23.998">
  <path id="Unión_7" data-name="Unión 7" d="M4.069,21.977A12.551,12.551,0,0,1,0,19.2c.243-1.5,1.991-2.5,3.415-3.083a16.647,16.647,0,0,1,5.691-1.179c.125,0,.257,0,.394.009v8.049c-.144,0-.273.006-.393.006A12.777,12.777,0,0,1,4.069,21.977ZM9.5,22.993V14.944c.137-.006.269-.009.394-.009a16.65,16.65,0,0,1,5.691,1.179C17.009,16.695,18.756,17.7,19,19.2a12.556,12.556,0,0,1-4.07,2.779A12.774,12.774,0,0,1,9.893,23C9.773,23,9.644,23,9.5,22.993Zm4.31-10.486a.912.912,0,0,1,.923-.9.934.934,0,0,1,.324.06,6.78,6.78,0,0,0,1.415-4.143A7.028,7.028,0,0,0,9.367.592,7.029,7.029,0,0,0,2.26,7.523a6.807,6.807,0,0,0,.195,1.62A.3.3,0,0,1,2.23,9.5a.3.3,0,0,1-.212-.029,1.673,1.673,0,0,1-.234-3.3A7.671,7.671,0,0,1,9.367,0,7.673,7.673,0,0,1,16.942,6.13a1.681,1.681,0,0,1-.134,3.358,7.38,7.38,0,0,1-1.284,2.559.877.877,0,0,1,.133.46.924.924,0,0,1-1.847,0ZM3.866,7.652A5.44,5.44,0,0,1,9.373,2.28a5.441,5.441,0,0,1,5.507,5.372,5.441,5.441,0,0,1-5.507,5.371A5.44,5.44,0,0,1,3.866,7.652Z" transform="translate(0.534 0.499)" fill="#e32219" stroke="rgba(0,0,0,0)" stroke-miterlimit="10" stroke-width="1"/>
</svg>
