<svg xmlns="http://www.w3.org/2000/svg" width="47" height="25.552" viewBox="0 0 47 25.552">
  <g id="ARG" transform="translate(8)">
    <rect id="Rect치ngulo_2541" data-name="Rect치ngulo 2541" width="47" height="25.552" transform="translate(-8)" fill="none"/>
    <path id="Trazado_1865" data-name="Trazado 1865" d="M39,96.793H0V88.948a.672.672,0,0,1,.672-.672H38.328a.672.672,0,0,1,.672.672v7.845Z" transform="translate(0 -88.276)" fill="#82afff"/>
    <path id="Trazado_1866" data-name="Trazado 1866" d="M38.327,320.426H.672A.673.673,0,0,1,0,319.754v-7.845H39v7.845A.672.672,0,0,1,38.327,320.426Z" transform="translate(0 -294.874)" fill="#82afff"/>
    <rect id="Rect치ngulo_2411" data-name="Rect치ngulo 2411" width="39" height="8.517" transform="translate(0 8.518)" fill="#f5f5f5"/>
    <path id="Trazado_1867" data-name="Trazado 1867" d="M218.584,215.056h-2.421a1.133,1.133,0,0,0,.113-.1.71.71,0,0,1,.5-.209,1.036,1.036,0,0,0,.736-.3.617.617,0,0,1,.231-.156.6.6,0,0,1,.272-.053.939.939,0,0,0,.4-.079l-.129-.31a.6.6,0,0,1-.272.053,1.037,1.037,0,0,0-.735.3.71.71,0,0,1-.5.209,1.04,1.04,0,0,0-.736.3.626.626,0,0,1-.226.152l1.9-1.9-.238-.238-1.713,1.713a1.2,1.2,0,0,0,.01-.151.7.7,0,0,1,.209-.5,1.038,1.038,0,0,0,.3-.736.7.7,0,0,1,.208-.5.938.938,0,0,0,.226-.337l-.311-.129a.615.615,0,0,1-.155.23,1.035,1.035,0,0,0-.3.735.618.618,0,0,1-.053.273.612.612,0,0,1-.156.231,1.04,1.04,0,0,0-.305.737.619.619,0,0,1-.051.267v-2.69h-.336v2.421a1.2,1.2,0,0,0-.1-.113.7.7,0,0,1-.21-.506,1.036,1.036,0,0,0-.3-.736.7.7,0,0,1-.208-.5.929.929,0,0,0-.079-.4l-.311.129a.615.615,0,0,1,.053.272,1.035,1.035,0,0,0,.3.735.7.7,0,0,1,.209.505,1.039,1.039,0,0,0,.3.736.62.62,0,0,1,.153.226l-1.9-1.9-.238.238,1.9,1.9a.653.653,0,0,1-.209-.144.937.937,0,0,0-.339-.227.949.949,0,0,0-.4-.079.718.718,0,0,1-.509-.211.955.955,0,0,0-.34-.227.944.944,0,0,0-.4-.079.628.628,0,0,1-.276-.055l-.129.311a.944.944,0,0,0,.4.079.628.628,0,0,1,.276.055.619.619,0,0,1,.234.156,1.052,1.052,0,0,0,.739.306.713.713,0,0,1,.507.21,1.246,1.246,0,0,0,.106.094H211.86v.336h2.685a.644.644,0,0,1-.249.047.937.937,0,0,0-.4.079.947.947,0,0,0-.339.226.616.616,0,0,1-.232.156.626.626,0,0,1-.276.055,1.047,1.047,0,0,0-.739.306.619.619,0,0,1-.234.156l.129.311a.945.945,0,0,0,.339-.227.619.619,0,0,1,.234-.156.627.627,0,0,1,.276-.055,1.047,1.047,0,0,0,.738-.306.716.716,0,0,1,.507-.21,1.224,1.224,0,0,0,.142-.009l-1.718,1.717.238.238,1.9-1.9a.645.645,0,0,1-.143.209,1.043,1.043,0,0,0-.305.737.715.715,0,0,1-.211.509,1.048,1.048,0,0,0-.306.739.63.63,0,0,1-.054.276l.311.129a.94.94,0,0,0,.08-.4.629.629,0,0,1,.054-.276.621.621,0,0,1,.157-.234,1.047,1.047,0,0,0,.306-.739.624.624,0,0,1,.054-.275.616.616,0,0,1,.156-.232,1.254,1.254,0,0,0,.094-.106v2.428h.336V215.9a.647.647,0,0,1,.046.248,1.046,1.046,0,0,0,.305.737.715.715,0,0,1,.211.509,1.049,1.049,0,0,0,.306.739.623.623,0,0,1,.157.234l.311-.129a.941.941,0,0,0-.227-.339.716.716,0,0,1-.211-.51,1.048,1.048,0,0,0-.306-.739.713.713,0,0,1-.21-.508,1.28,1.28,0,0,0-.01-.142l1.718,1.718.238-.238-1.712-1.712a1.245,1.245,0,0,0,.15.01.612.612,0,0,1,.274.053.62.62,0,0,1,.232.156.944.944,0,0,0,.338.226.931.931,0,0,0,.4.078.618.618,0,0,1,.273.054.607.607,0,0,1,.23.155.944.944,0,0,0,.337.226l.129-.311a.607.607,0,0,1-.23-.155.944.944,0,0,0-.337-.226.931.931,0,0,0-.4-.078.618.618,0,0,1-.273-.054.611.611,0,0,1-.232-.156.936.936,0,0,0-.338-.225.918.918,0,0,0-.4-.079.631.631,0,0,1-.268-.052h2.693v-.336Z" transform="translate(-195.722 -202.447)" fill="#f09146"/>
    <circle id="Elipse_15" data-name="Elipse 15" cx="1.681" cy="1.681" r="1.681" transform="translate(17.819 11.096)" fill="#ffe15a"/>
  </g>
</svg>
