<svg xmlns="http://www.w3.org/2000/svg" width="47.281" height="25.736" viewBox="0 0 47.281 25.736">
  <g id="PAR" transform="translate(8)">
    <path id="Trazado_1860" data-name="Trazado 1860" d="M39.281,96.855H0v-7.9a.677.677,0,0,1,.677-.677H38.6a.677.677,0,0,1,.677.677v7.9Z" transform="translate(0 -88.276)" fill="#ff4b55"/>
    <path id="Trazado_1861" data-name="Trazado 1861" d="M38.6,320.488H.677A.677.677,0,0,1,0,319.81v-7.9H39.281v7.9A.677.677,0,0,1,38.6,320.488Z" transform="translate(0 -294.752)" fill="#41479b"/>
    <rect id="Rect치ngulo_2410" data-name="Rect치ngulo 2410" width="39.281" height="8.578" transform="translate(0 8.579)" fill="#f5f5f5"/>
    <path id="Trazado_1862" data-name="Trazado 1862" d="M215.248,211.863a3.386,3.386,0,1,0,3.386,3.386A3.386,3.386,0,0,0,215.248,211.863Zm0,5.94a2.554,2.554,0,1,1,2.554-2.554A2.554,2.554,0,0,1,215.248,217.8Z" transform="translate(-195.608 -202.381)" fill="#ff4b55"/>
    <circle id="Elipse_14" data-name="Elipse 14" cx="1.175" cy="1.175" r="1.175" transform="translate(18.466 11.693)" fill="#41479b"/>
    <path id="Trazado_1863" data-name="Trazado 1863" d="M244.712,243.741l.189.568.6,0a.081.081,0,0,1,.047.146l-.481.355.181.57a.081.081,0,0,1-.124.09l-.487-.348-.487.348a.081.081,0,0,1-.124-.09l.181-.57-.481-.355a.081.081,0,0,1,.047-.146l.6,0,.189-.568A.081.081,0,0,1,244.712,243.741Z" transform="translate(-224.995 -231.762)" fill="#ffe15a"/>
    <path id="Trazado_1864" data-name="Trazado 1864" d="M231.377,232.72s.067-.31-.263.062a1.51,1.51,0,0,0,0-.193.812.812,0,0,0,.142-.618s-.052-.313-.222.154a1.217,1.217,0,0,0-.1-.214.7.7,0,0,0-.026-.533s-.115-.251-.151.18a.77.77,0,0,0-.156-.176.518.518,0,0,0-.136-.382s-.138-.155-.069.163c0,0-.127-.1-.167-.091a.648.648,0,0,0-.286-.3s-.177-.1.026.156c0,0-.18-.071-.177-.03s.089.116.16.15c0,0-.263.027-.155.086a.643.643,0,0,0,.427,0,.311.311,0,0,0,.078.137s-.313-.061-.228.033a.776.776,0,0,0,.467.146.452.452,0,0,0,.052.209s-.374-.2-.3-.047a1.05,1.05,0,0,0,.521.364.541.541,0,0,0,0,.213s-.355-.335-.322-.144a1.2,1.2,0,0,0,.449.56.545.545,0,0,0-.052.158s-.207-.442-.247-.253a1.18,1.18,0,0,0,.229.705.551.551,0,0,0-.13.157s-.045-.486-.147-.321a1.228,1.228,0,0,0-.045.685.551.551,0,0,0-.182.094s.15-.464-.008-.353a1.232,1.232,0,0,0-.3.648.514.514,0,0,0-.249.069s.214-.438.042-.35a1.259,1.259,0,0,0-.387.577l-.32.182-.2-.117,0,0-.7-.586.014.192-.351-.628-.043.214-.115-.694-.1.1.039-.647-.133.072.241-.482-.113.032.3-.286-.158.013.377-.171-.138-.021.368-.186-.159-.008.477-.165-.087-.076.413-.122-.495-.038.141-.173-.378.193.054-.261-.33.34.057-.238-.309.308.02-.232-.306.518-.039-.232-.254.581-.07-.253-.113.721-.095-.107.124.7-.158-.118.289.624a2.243,2.243,0,0,0-.237-.092c-.026,0,.5.537.5.537l-.276-.03.533.375-.2.049.444.172-.108.084.919.066s.089.074.209.159l-.154.086a.13.13,0,0,1-.113.006l-.274-.112a.274.274,0,0,0,.278.268.892.892,0,0,0,.405-.153.907.907,0,0,0,.42.167.272.272,0,0,0,.272-.268l-.268.112a.124.124,0,0,1-.11-.006l-.171-.1c.073-.049.133-.094.176-.127.067.053.258.145.686-.016,0,0,.284-.143-.213-.166a1.46,1.46,0,0,0,.155-.132c.082.042.283.092.666-.119,0,0,.261-.182-.235-.134a1.612,1.612,0,0,0,.118-.13c.085.01.3-.013.576-.371,0,0,.168-.27-.269-.03a1.209,1.209,0,0,0,.07-.225A.813.813,0,0,0,231.377,232.72Z" transform="translate(-209.514 -219.825)" fill="#64c86e"/>
    <rect id="Rect치ngulo_2543" data-name="Rect치ngulo 2543" width="47" height="25.552" transform="translate(-8)" fill="none"/>
  </g>
</svg>
